HIERARCHY
ROOT Hips
{
  OFFSET 0.849866 78.6569 -0.536788
  CHANNELS 6 Xposition Yposition Zposition Zrotation Xrotation Yrotation
  JOINT Bip01_Pelvis
  {
    OFFSET 0 0 0
    CHANNELS 6 Xposition Yposition Zposition Zrotation Xrotation Yrotation
    JOINT BN_Tail_01
    {
      OFFSET -5.52397 -0.332285 0
      CHANNELS 6 Xposition Yposition Zposition Zrotation Xrotation Yrotation
      JOINT BN_Tail_02
      {
        OFFSET 6.48885 -2.032e-005 0
        CHANNELS 6 Xposition Yposition Zposition Zrotation Xrotation Yrotation
        JOINT BN_Tail_03
        {
          OFFSET 7.08759 1.016e-005 -0.00261112
          CHANNELS 6 Xposition Yposition Zposition Zrotation Xrotation Yrotation
          End Site
          {
            OFFSET 0 0 0
          }
        }
      }
    }
    JOINT Bip01_Spine
    {
      OFFSET 4.02227 0.398968 0
      CHANNELS 6 Xposition Yposition Zposition Zrotation Xrotation Yrotation
      JOINT BN_UpperArm_R_01
      {
        OFFSET 4.84413 -3.22857 -3.65581
        CHANNELS 6 Xposition Yposition Zposition Zrotation Xrotation Yrotation
        JOINT BN_Forearm_R_01
        {
          OFFSET 8.51614 0 0
          CHANNELS 6 Xposition Yposition Zposition Zrotation Xrotation Yrotation
          JOINT BN_hand_R_01
          {
            OFFSET 10.1924 0 0
            CHANNELS 6 Xposition Yposition Zposition Zrotation Xrotation Yrotation
            JOINT BN_Finger_R_02
            {
              OFFSET 14.5949 -1.43855 0.585079
              CHANNELS 6 Xposition Yposition Zposition Zrotation Xrotation Yrotation
              End Site
              {
                OFFSET 0 0 0
              }
            }
            JOINT BN_Finger_R_01
            {
              OFFSET 14.4623 0 0
              CHANNELS 6 Xposition Yposition Zposition Zrotation Xrotation Yrotation
              End Site
              {
                OFFSET 0 0 0
              }
            }
          }
        }
      }
      JOINT BN_UpperArm_L_01
      {
        OFFSET 4.84412 -3.22858 3.65557
        CHANNELS 6 Xposition Yposition Zposition Zrotation Xrotation Yrotation
        JOINT BN_Forearm_L_01
        {
          OFFSET 8.51611 0 0
          CHANNELS 6 Xposition Yposition Zposition Zrotation Xrotation Yrotation
          JOINT BN_hand_L_01
          {
            OFFSET 10.1924 0 0
            CHANNELS 6 Xposition Yposition Zposition Zrotation Xrotation Yrotation
            JOINT BN_Finger_L_01
            {
              OFFSET 14.4623 0 0
              CHANNELS 6 Xposition Yposition Zposition Zrotation Xrotation Yrotation
              End Site
              {
                OFFSET 0 0 0
              }
            }
            JOINT BN_Finger_L_02
            {
              OFFSET 14.5949 1.43855 0.585071
              CHANNELS 6 Xposition Yposition Zposition Zrotation Xrotation Yrotation
              End Site
              {
                OFFSET 0 0 0
              }
            }
          }
        }
      }
      JOINT Bip01_R_Thigh
      {
        OFFSET -4.03411 -0.254132 -3.45377
        CHANNELS 6 Xposition Yposition Zposition Zrotation Xrotation Yrotation
        JOINT Bip01_R_Calf
        {
          OFFSET 3.92618 0 0
          CHANNELS 6 Xposition Yposition Zposition Zrotation Xrotation Yrotation
          JOINT Bip01_R_HorseLink
          {
            OFFSET 6.12319 0 0
            CHANNELS 6 Xposition Yposition Zposition Zrotation Xrotation Yrotation
            JOINT Bip01_R_Foot
            {
              OFFSET 9.94776 0 0
              CHANNELS 6 Xposition Yposition Zposition Zrotation Xrotation Yrotation
              JOINT Bip01_R_Toe3
              {
                OFFSET 0.881252 -0.110953 0.0158496
                CHANNELS 6 Xposition Yposition Zposition Zrotation Xrotation Yrotation
                JOINT Bip01_R_Toe31
                {
                  OFFSET 2.32137 0 0
                  CHANNELS 6 Xposition Yposition Zposition Zrotation Xrotation Yrotation
                  JOINT Bip01_R_Toe32
                  {
                    OFFSET 1.63293 0 0
                    CHANNELS 6 Xposition Yposition Zposition Zrotation Xrotation Yrotation
                    JOINT Bip01_R_Toe3Nub
                    {
                      OFFSET 1.72131 0 0
                      CHANNELS 6 Xposition Yposition Zposition Zrotation Xrotation Yrotation
                      End Site
                      {
                        OFFSET 0 0 0
                      }
                    }
                  }
                }
              }
              JOINT Bip01_R_Toe2
              {
                OFFSET 0.994751 0.967285 -1.09428
                CHANNELS 6 Xposition Yposition Zposition Zrotation Xrotation Yrotation
                JOINT Bip01_R_Toe21
                {
                  OFFSET 2.20201 0 0
                  CHANNELS 6 Xposition Yposition Zposition Zrotation Xrotation Yrotation
                  JOINT Bip01_R_Toe22
                  {
                    OFFSET 1.84925 0 0
                    CHANNELS 6 Xposition Yposition Zposition Zrotation Xrotation Yrotation
                    JOINT Bip01_R_Toe2Nub
                    {
                      OFFSET 1.70976 0 0
                      CHANNELS 6 Xposition Yposition Zposition Zrotation Xrotation Yrotation
                      End Site
                      {
                        OFFSET 0 0 0
                      }
                    }
                  }
                }
              }
              JOINT Bip01_R_Toe1
              {
                OFFSET 1.3748 1.34027 -0.0712419
                CHANNELS 6 Xposition Yposition Zposition Zrotation Xrotation Yrotation
                JOINT Bip01_R_Toe11
                {
                  OFFSET 2.26122 0 0
                  CHANNELS 6 Xposition Yposition Zposition Zrotation Xrotation Yrotation
                  JOINT Bip01_R_Toe12
                  {
                    OFFSET 2.22215 0 0
                    CHANNELS 6 Xposition Yposition Zposition Zrotation Xrotation Yrotation
                    JOINT Bip01_R_Toe1Nub
                    {
                      OFFSET 1.61867 0 0
                      CHANNELS 6 Xposition Yposition Zposition Zrotation Xrotation Yrotation
                      End Site
                      {
                        OFFSET 0 0 0
                      }
                    }
                  }
                }
              }
              JOINT Bip01_R_Toe0
              {
                OFFSET 1.40695 0.687986 0.883783
                CHANNELS 6 Xposition Yposition Zposition Zrotation Xrotation Yrotation
                JOINT Bip01_R_Toe01
                {
                  OFFSET 2.26828 0 0
                  CHANNELS 6 Xposition Yposition Zposition Zrotation Xrotation Yrotation
                  JOINT Bip01_R_Toe02
                  {
                    OFFSET 2.09769 0 0
                    CHANNELS 6 Xposition Yposition Zposition Zrotation Xrotation Yrotation
                    JOINT Bip01_R_Toe0Nub
                    {
                      OFFSET 1.53753 0 0
                      CHANNELS 6 Xposition Yposition Zposition Zrotation Xrotation Yrotation
                      End Site
                      {
                        OFFSET 0 0 0
                      }
                    }
                  }
                }
              }
            }
          }
        }
      }
      JOINT Bip01_L_Thigh
      {
        OFFSET -4.03411 -0.254147 3.45377
        CHANNELS 6 Xposition Yposition Zposition Zrotation Xrotation Yrotation
        JOINT Bip01_L_Calf
        {
          OFFSET 3.92616 0 0
          CHANNELS 6 Xposition Yposition Zposition Zrotation Xrotation Yrotation
          JOINT Bip01_L_HorseLink
          {
            OFFSET 6.1232 0 0
            CHANNELS 6 Xposition Yposition Zposition Zrotation Xrotation Yrotation
            JOINT Bip01_L_Foot
            {
              OFFSET 9.94775 0 0
              CHANNELS 6 Xposition Yposition Zposition Zrotation Xrotation Yrotation
              JOINT Bip01_L_Toe3
              {
                OFFSET 0.881246 -0.110986 -0.0157582
                CHANNELS 6 Xposition Yposition Zposition Zrotation Xrotation Yrotation
                JOINT Bip01_L_Toe31
                {
                  OFFSET 2.32136 0 0
                  CHANNELS 6 Xposition Yposition Zposition Zrotation Xrotation Yrotation
                  JOINT Bip01_L_Toe32
                  {
                    OFFSET 1.63293 0 0
                    CHANNELS 6 Xposition Yposition Zposition Zrotation Xrotation Yrotation
                    JOINT Bip01_L_Toe3Nub
                    {
                      OFFSET 1.7213 0 0
                      CHANNELS 6 Xposition Yposition Zposition Zrotation Xrotation Yrotation
                      End Site
                      {
                        OFFSET 0 0 0
                      }
                    }
                  }
                }
              }
              JOINT Bip01_L_Toe2
              {
                OFFSET 0.994649 0.967162 1.09447
                CHANNELS 6 Xposition Yposition Zposition Zrotation Xrotation Yrotation
                JOINT Bip01_L_Toe21
                {
                  OFFSET 2.202 0 0
                  CHANNELS 6 Xposition Yposition Zposition Zrotation Xrotation Yrotation
                  JOINT Bip01_L_Toe22
                  {
                    OFFSET 1.84926 0 0
                    CHANNELS 6 Xposition Yposition Zposition Zrotation Xrotation Yrotation
                    JOINT Bip01_L_Toe2Nub
                    {
                      OFFSET 1.70976 0 0
                      CHANNELS 6 Xposition Yposition Zposition Zrotation Xrotation Yrotation
                      End Site
                      {
                        OFFSET 0 0 0
                      }
                    }
                  }
                }
              }
              JOINT Bip01_L_Toe1
              {
                OFFSET 1.37483 1.34021 0.0715086
                CHANNELS 6 Xposition Yposition Zposition Zrotation Xrotation Yrotation
                JOINT Bip01_L_Toe11
                {
                  OFFSET 2.26124 0 0
                  CHANNELS 6 Xposition Yposition Zposition Zrotation Xrotation Yrotation
                  JOINT Bip01_L_Toe12
                  {
                    OFFSET 2.22214 0 0
                    CHANNELS 6 Xposition Yposition Zposition Zrotation Xrotation Yrotation
                    JOINT Bip01_L_Toe1Nub
                    {
                      OFFSET 1.61867 0 0
                      CHANNELS 6 Xposition Yposition Zposition Zrotation Xrotation Yrotation
                      End Site
                      {
                        OFFSET 0 0 0
                      }
                    }
                  }
                }
              }
              JOINT Bip01_L_Toe0
              {
                OFFSET 1.40707 0.688009 -0.883564
                CHANNELS 6 Xposition Yposition Zposition Zrotation Xrotation Yrotation
                JOINT Bip01_L_Toe01
                {
                  OFFSET 2.26828 0 0
                  CHANNELS 6 Xposition Yposition Zposition Zrotation Xrotation Yrotation
                  JOINT Bip01_L_Toe02
                  {
                    OFFSET 2.0977 0 0
                    CHANNELS 6 Xposition Yposition Zposition Zrotation Xrotation Yrotation
                    JOINT Bip01_L_Toe0Nub
                    {
                      OFFSET 1.53752 0 0
                      CHANNELS 6 Xposition Yposition Zposition Zrotation Xrotation Yrotation
                      End Site
                      {
                        OFFSET 0 0 0
                      }
                    }
                  }
                }
              }
            }
          }
        }
      }
      JOINT Bip01_Spine1
      {
        OFFSET 4.90674 -0.00437896 0
        CHANNELS 6 Xposition Yposition Zposition Zrotation Xrotation Yrotation
        JOINT Bip01_Neck
        {
          OFFSET 5.56447 -1.28357 0
          CHANNELS 6 Xposition Yposition Zposition Zrotation Xrotation Yrotation
          JOINT Bip01_Neck1
          {
            OFFSET 2.79308 -0.00219964 0
            CHANNELS 6 Xposition Yposition Zposition Zrotation Xrotation Yrotation
            JOINT Bip01_Head
            {
              OFFSET 2.79272 0 0
              CHANNELS 6 Xposition Yposition Zposition Zrotation Xrotation Yrotation
              JOINT BN_Mouth_01
              {
                OFFSET 4.19089 0.0665938 0
                CHANNELS 6 Xposition Yposition Zposition Zrotation Xrotation Yrotation
                End Site
                {
                  OFFSET 0 0 0
                }
              }
              JOINT Bip01_HeadNub
              {
                OFFSET 6.95118 0 0
                CHANNELS 6 Xposition Yposition Zposition Zrotation Xrotation Yrotation
                End Site
                {
                  OFFSET 0 0 0
                }
              }
            }
          }
        }
      }
    }
  }
}
MOTION
Frames:	3
Frame Time:	0.0333333
0.849866 80.2156 -0.463039 -176.546 -90 -90 0 0 0 -89.9989 6.70786 -89.9989 -5.52397 -0.332285 5.55112e-017 6.76279 -0.0254346 179.321 6.48885 -2.032e-005 -5.55111e-017 -5.38352 0.0611004 -0.659586 7.08759 1.016e-005 -0.00261112 -4.08543 0.0182461 -0.691718 4.02227 0.398968 -1.11022e-016 -3.8581 2.03545e-013 -3.24993e-012 4.84413 -3.22857 -3.65581 -59.4911 -6.36997 20.5353 8.51614 5.08001e-006 0 17.2122 -11.572 -19.4536 10.1924 -2.54e-006 0 -19.6134 6.92784 2.93751 14.5949 -1.43855 0.585079 -48.0453 -1.27958 67.3919 14.4623 -8.8818e-015 0 -7.24696 0.247808 61.6584 4.84412 -3.22858 3.65557 120.051 -5.54353 -152.406 8.51611 1.01252e-013 -5.08e-006 -15.5951 13.3164 -28.3976 10.1924 -7.10544e-015 0 20.1054 -7.30551 2.48898 14.4623 5.08001e-006 0 16.5998 -2.9328 60.005 14.5949 1.43855 0.585071 61.241 -1.52513 67.2771 -3.98637 -0.668163 -3.45377 -107.553 1.25338 -177.357 3.92618 -1.42109e-014 -8.88179e-016 -123.477 9.54389e-006 -1.44324e-005 6.12319 -5.08001e-006 1.33227e-015 50.5642 6.3619e-006 -7.73741e-006 9.94776 2.54001e-006 4.44089e-016 -14.8724 9.38702 12.6478 0.881251 -0.110953 0.0158496 139.758 -4.43743 178.754 2.32137 -5.08004e-006 -1.77636e-015 -4.9745 -0.00363675 0.0236234 1.63294 -5.08004e-006 -1.77636e-015 -56.5464 0.00353267 0.00534647 1.72131 5.08008e-006 -1.77636e-014 -1.13307e-014 3.18055e-015 -7.95139e-016 0.994751 0.967285 -1.09428 109.758 8.18376 26.3271 2.20201 5.08005e-006 -2.13163e-014 -41.096 -0.0266402 0.0305398 1.84925 -2.54004e-006 -7.10543e-015 -7.14928 0.0030248 -0.0242541 1.70977 -5.08008e-006 7.10543e-015 1.73027e-005 1.0018e-005 -3.05015e-012 1.3748 1.34027 -0.0712419 103.772 -0.642098 -2.61457 2.26122 5.08005e-006 -7.10543e-015 -50.7924 -1.06811e-005 -1.3446e-005 2.22214 1.77638e-015 1.77636e-015 -5.83925 -0.00284199 0.0277961 1.61867 -5.08008e-006 1.15463e-014 9.44206e-016 1.0018e-005 1.23048e-013 1.40695 0.687986 0.883783 111.058 -12.6085 -29.5468 2.26828 3.55275e-014 2.54e-006 -50.6724 -0.0200874 0.0164361 2.09769 -2.54004e-006 -2.54e-006 -24.044 0.00805182 -0.0180872 1.53753 -5.08009e-006 1.98952e-013 -1.04074e-012 1.0018e-005 1.00179e-005 -3.98637 -0.668173 3.45377 -69.3962 5.63561 175.826 3.92616 2.54e-006 0 -58.7741 -8.55992e-006 5.20445e-006 6.1232 5.08001e-006 4.44089e-016 45.7755 -1.20751e-005 1.23995e-005 9.94775 0 0 -32.9877 -5.98082 -4.4311 0.881246 -0.110986 -0.0157582 93.3901 2.2044 -175.961 2.32136 5.08005e-006 -3.55271e-015 -55.825 -1.14724e-006 1.38756e-005 1.63292 2.84221e-014 8.88178e-016 -67.1265 0.00089661 -0.000378515 1.7213 0 -8.88178e-016 179.962 -0.00991006 0.00110351 0.994649 0.967161 1.09447 60.6336 15.844 -22.7686 2.202 5.08005e-006 3.55271e-015 -53.2948 0.00912816 0.0122611 1.84926 2.54003e-006 2.54e-006 -50.2471 -7.1343e-006 6.60921e-006 1.70976 -2.13167e-014 1.06581e-014 -179.962 -0.00180101 0.0101818 1.37483 1.34021 0.0715086 61.0751 -1.30161 2.35446 2.26124 8.21573e-015 2.66454e-015 -70.9703 -0.00274986 -0.00794201 2.22214 2.54004e-006 0 -40.1562 -0.00211086 0.0025173 1.61867 -5.0801e-006 1.77636e-015 -179.961 0.00342769 -0.00698597 1.40707 0.688009 -0.883564 73.0225 -10.2969 30.3538 2.26828 5.08005e-006 7.81596e-014 -73.5859 -2.75496e-006 4.63956e-006 2.0977 0 -7.10542e-015 -62.4604 5.36577e-006 1.12215e-005 1.53752 -5.08013e-006 2.54e-006 179.961 -0.00524604 0.000696729 4.90674 -0.00437896 0 -1.20654 1.00157e-005 2.10943e-007 5.56447 -1.28357 -4.996e-016 -1.01351 -0.0278007 1.95116 2.79308 -0.00219964 4.44089e-016 13.2767 0.453824 1.89639 2.79272 1.42109e-014 -4.44089e-016 25.2935 -1.7455 -1.8201 4.19089 0.0665938 -3.19392e-011 176.523 -0.0637818 179.998 6.95118 1.42109e-014 0 6.15611e-015 9.93923e-017 -0 
0.849866 79.675 -0.489003 -176.546 -90 -90 0 0 0 -89.9989 6.70786 -89.9989 -5.52397 -0.332285 2.22045e-016 5.26944 -0.014159 179.251 6.48885 -2.032e-005 1.11022e-016 -7.20788 0.0918776 -0.734854 7.08759 1.016e-005 -0.00261112 -7.95749 0.0714238 -0.735446 4.02227 0.398968 0 -2.6196 1.01773e-013 -3.25668e-012 4.84413 -3.22857 -3.65581 -60.2233 -6.56239 22.3562 8.51614 5.08001e-006 0 17.5489 -13.5182 -17.0175 10.1924 -2.54e-006 1.06581e-014 -17.4741 4.95651 -8.63674 14.5949 -1.43855 0.585079 -47.1644 -0.866631 62.3867 14.4623 1.06582e-014 0 -6.99787 0.836788 54.8478 4.84412 -3.22858 3.65557 119.237 -6.10908 -150.213 8.51611 1.04805e-013 -5.08e-006 -15.5006 13.9108 -26.4718 10.1924 -1.42109e-014 3.55271e-015 16.8499 -4.59524 -8.36828 14.4623 5.08001e-006 7.10543e-015 13.432 -2.55708 53.6569 14.5949 1.43855 0.585071 59.0016 -2.26869 64.732 -3.99997 -0.582001 -3.45377 -108.595 1.22614 -177.232 3.92618 0 -4.44089e-016 -122.539 9.30621e-006 -1.45867e-005 6.12319 -5.08001e-006 0 50.3786 6.38677e-006 -7.71683e-006 9.94776 2.54001e-006 8.88179e-016 -14.0861 9.80661 12.3792 0.881251 -0.110953 0.0158496 136.575 -4.31687 178.548 2.32137 -5.08004e-006 0 -2.53214 -0.00157349 -5.95569e-005 1.63294 -5.08005e-006 3.55271e-015 -55.2952 0.0036474 0.00526886 1.72131 5.08008e-006 -1.59872e-014 2.78299e-015 3.18055e-015 -3.18056e-015 0.994751 0.967285 -1.09428 103.654 5.13559 27.0354 2.20201 5.08006e-006 -2.13163e-014 -39.7283 -0.0283203 0.0340749 1.84925 -2.54004e-006 0 -10.5061 0.00506253 -0.0273932 1.70977 -5.08008e-006 -1.42109e-014 1.73027e-005 1.0018e-005 -3.01835e-012 1.3748 1.34027 -0.0712419 97.8384 -0.366243 -2.66719 2.26122 5.08006e-006 -7.10543e-015 -48.5688 -1.87877e-005 -6.39471e-006 2.22214 -1.77638e-015 8.88179e-016 -9.21791 -0.00446664 0.0275269 1.61867 -5.08008e-006 -3.55271e-015 -2.783e-015 1.0018e-005 1.01778e-013 1.40695 0.687986 0.883783 105.812 -9.62863 -30.5592 2.26828 1.4211e-014 2.54e-006 -47.2142 -0.0200104 0.0184981 2.09769 -2.54004e-006 -2.54e-006 -28.3818 0.00924111 -0.0171382 1.53753 -5.08009e-006 2.34479e-013 -1.09242e-012 1.0018e-005 1.00179e-005 -3.99997 -0.582008 3.45377 -66.4373 3.99547 175.363 3.92616 2.54e-006 -2.22045e-015 -53.4319 2.92433e-009 3.71199e-009 6.1232 5.08001e-006 1.33227e-015 46.7681 -1.18547e-005 1.26068e-005 9.94775 3.55273e-015 -1.77636e-015 -37.5088 -6.80349 -5.54955 0.881246 -0.110986 -0.0157582 95.986 2.35199 -176.093 2.32136 5.08005e-006 -2.66454e-015 -52.233 7.72801e-006 7.88354e-006 1.63293 0 0 -66.9566 -4.59341e-007 -1.81087e-007 1.7213 7.10559e-015 -1.77636e-015 179.962 -0.00991006 0.00110351 0.994649 0.967161 1.09447 60.3387 15.9627 -22.6878 2.202 5.08005e-006 0 -48.5458 0.0101192 0.0114567 1.84926 2.54003e-006 2.54e-006 -54.4441 -7.45185e-006 6.17384e-006 1.70976 -7.10556e-015 3.55271e-015 -179.962 -0.00180101 0.0101818 1.37483 1.34021 0.0715086 61.0947 -1.30121 2.35468 2.26124 -2.66456e-015 -1.77636e-015 -65.7283 -0.00346397 -0.00765756 2.22214 2.54004e-006 2.66454e-015 -44.6201 7.15952e-006 7.0635e-006 1.61867 -5.0801e-006 0 -179.961 0.00342769 -0.00698597 1.40707 0.688009 -0.883564 72.8724 -10.3829 30.327 2.26828 5.08005e-006 7.10542e-014 -68.7521 -2.12791e-006 4.54478e-006 2.0977 0 0 -66.3998 -4.17327e-006 1.54874e-005 1.53752 -5.08013e-006 2.54e-006 179.961 -0.00524604 0.000696729 4.90674 -0.00437896 -5.55112e-017 -1.62973 1.00139e-005 2.84913e-007 5.56447 -1.28357 -1.66533e-016 -1.36653 -0.0371521 1.83893 2.79308 -0.00219964 6.66134e-016 11.7025 0.37931 1.80094 2.79272 0 -4.44089e-016 24.7689 -1.4995 -1.56146 4.19089 0.0665938 -3.6518e-011 177.284 -0.0520478 179.999 6.95118 0 2.22045e-016 2.09966e-015 0 -1.98785e-016 
0.849866 79.2244 -0.510577 -176.546 -90 -90 0 0 0 -89.9989 6.70786 -89.9989 -5.52397 -0.332285 1.11022e-016 3.39538 0.00695732 179.193 6.48885 -2.032e-005 -5.55111e-017 -8.78272 0.119721 -0.781759 7.08759 1.016e-005 -0.00261112 -11.8627 0.130302 -0.771493 4.02227 0.398968 -1.11022e-016 -1.08578 5.08883e-014 -3.25642e-012 4.84413 -3.22857 -3.65581 -60.7885 -6.88323 25.1827 8.51614 5.08001e-006 1.06581e-014 18.3331 -14.8441 -13.6668 10.1924 -2.54e-006 2.4869e-014 -16.5781 2.34466 -20.0239 14.5949 -1.43855 0.585079 -45.8304 0.0316823 53.8744 14.4623 0 7.10543e-015 -6.8303 1.76867 46.5635 4.84412 -3.22858 3.65557 118.934 -6.94638 -147.801 8.51611 1.27898e-013 -5.08e-006 -16.0547 13.4205 -23.6225 10.1924 0 3.55271e-015 14.5607 -1.34811 -18.9875 14.4623 5.08001e-006 2.84217e-014 9.51519 -1.64776 46.9166 14.5949 1.43855 0.585071 55.7591 -3.28337 61.4421 -4.01411 -0.474394 -3.45377 -110.079 1.17617 -177.049 3.92618 7.10544e-015 0 -121.46 9.02973e-006 -1.47594e-005 6.12319 -5.08001e-006 4.44089e-016 50.2978 6.39742e-006 -7.70793e-006 9.94776 2.54001e-006 4.44089e-016 -12.7233 10.4555 11.9174 0.881251 -0.110953 0.0158496 132.157 -4.18217 178.225 2.32137 -5.08004e-006 1.77636e-015 0.786168 -0.0015743 3.16216e-005 1.63293 -5.08005e-006 0 -53.5526 0.00191003 0.00655569 1.72131 5.08008e-006 -1.06581e-014 -1.39149e-015 0 1.59028e-015 0.994751 0.967285 -1.09428 95.3287 0.844463 27.4707 2.20201 5.08006e-006 -1.77636e-014 -37.8466 -0.0136719 0.0175935 1.84925 -2.54004e-006 -7.10543e-015 -15.1365 0.00356909 -0.0132604 1.70976 -5.08008e-006 -3.55271e-015 1.73027e-005 1.0018e-005 -3.05015e-012 1.3748 1.34027 -0.0712419 89.6541 0.0161649 -2.69216 2.26122 5.08006e-006 -7.10543e-015 -45.5007 -1.25768e-005 -1.19095e-005 2.22214 3.55277e-015 -1.77636e-015 -13.8739 -0.00329908 0.013359 1.61867 -5.08008e-006 -2.13163e-014 -4.96962e-014 1.0018e-005 1.20066e-013 1.40695 0.687986 0.883783 98.7257 -5.39677 -31.4876 2.26828 -6.39496e-014 2.54e-006 -42.4332 -0.00971263 0.0106002 2.09769 -2.54004e-006 -2.54e-006 -34.3719 0.00530305 -0.00778218 1.53753 -5.08009e-006 2.55795e-013 -1.07016e-012 1.0018e-005 1.00179e-005 -4.01412 -0.474404 3.45377 -63.0277 2.07207 175.007 3.92616 2.54e-006 1.77636e-015 -46.8136 1.23289e-009 4.71128e-010 6.1232 5.08001e-006 -2.22045e-015 47.5902 -1.16708e-005 1.2776e-005 9.94775 -3.55273e-015 2.66453e-015 -42.0541 -7.78199 -6.7761 0.881246 -0.110986 -0.0157582 99.5691 2.59663 -176.241 2.32136 5.08005e-006 -6.21725e-015 -47.2808 8.45044e-006 7.33172e-006 1.63293 0 1.77636e-015 -66.6441 -5.19791e-007 -2.35924e-007 1.7213 7.10558e-015 -8.88178e-016 179.962 -0.00991006 0.00110351 0.994649 0.967162 1.09447 59.926 16.1281 -22.5737 2.202 5.08005e-006 0 -41.9913 0.0113592 0.0102282 1.84926 2.54003e-006 2.54e-006 -60.2319 -7.87588e-006 5.5331e-006 1.70976 0 0 -179.962 -0.00180101 0.0101818 1.37483 1.34021 0.0715086 61.1145 -1.30081 2.3549 2.26124 -3.55275e-015 8.88178e-016 -58.4493 -0.00439774 -0.0071622 2.22214 2.54004e-006 2.66454e-015 -50.8122 5.88839e-006 8.19874e-006 1.61867 -5.0801e-006 0 -179.961 0.00342769 -0.00698597 1.40707 0.688009 -0.883564 72.7208 -10.4697 30.2997 2.26828 5.08005e-006 7.81596e-014 -62.1632 -2.46197e-006 4.88416e-006 2.0977 0 0 -71.7971 2.76118e-006 1.23855e-005 1.53752 -5.08013e-006 2.54e-006 179.961 -0.00524604 0.000696729 4.90674 -0.00437896 0 -1.92487 1.00123e-005 3.36491e-007 5.56447 -1.28357 -1.11022e-016 -1.7721 -0.0452434 1.67944 2.79308 -0.00219964 -2.22045e-016 9.96712 0.296716 1.65319 2.79272 0 -8.88178e-016 24.2323 -1.2046 -1.22164 4.19089 0.0665938 -4.23288e-011 178.052 -0.0401764 179.999 6.95118 0 0 -5.12492e-015 -9.93923e-017 1.98785e-016 
